<svg width="48" height="48" viewBox="0 0 48 48" fill="none" xmlns="http://www.w3.org/2000/svg">
<g clip-path="url(#clip0_2198_945)">
<mask id="mask0_2198_945" style="mask-type:luminance" maskUnits="userSpaceOnUse" x="0" y="0" width="48" height="48">
<path d="M48 0H0V48H48V0Z" fill="white"/>
</mask>
<g mask="url(#mask0_2198_945)">
<mask id="mask1_2198_945" style="mask-type:luminance" maskUnits="userSpaceOnUse" x="0" y="0" width="48" height="48">
<path d="M48 24C48 10.7452 37.2548 0 24 0C10.7452 0 0 10.7452 0 24C0 37.2548 10.7452 48 24 48C37.2548 48 48 37.2548 48 24Z" fill="white"/>
</mask>
<g mask="url(#mask1_2198_945)">
<path d="M48 24C48 10.7452 37.2548 0 24 0C10.7452 0 0 10.7452 0 24C0 37.2548 10.7452 48 24 48C37.2548 48 48 37.2548 48 24Z" fill="#FCF0DD" stroke="black"/>
<path d="M65.5562 12.3636H18.0361C13.6179 12.3636 10.0361 15.9454 10.0361 20.3636V67.8838C10.0361 72.3019 13.6179 75.8838 18.0361 75.8838H65.5562C69.9743 75.8838 73.5562 72.3019 73.5562 67.8838V20.3636C73.5562 15.9454 69.9743 12.3636 65.5562 12.3636Z" fill="#AAC8E7"/>
<path d="M65.4105 23.4677H17.8906C13.4724 23.4677 9.89062 27.0494 9.89062 31.4677V78.9878C9.89062 83.4059 13.4724 86.9878 17.8906 86.9878H65.4105C69.8291 86.9878 73.4105 83.4059 73.4105 78.9878V31.4677C73.4105 27.0494 69.8291 23.4677 65.4105 23.4677Z" fill="#EB5B58"/>
<path d="M27.4905 30.7631L27.3337 30.9174L19.4448 38.6821L19.2881 38.8363L14.8359 34.4545L15.9439 33.3641L19.2879 36.6554L26.2259 29.827L26.3826 29.6727L27.4905 30.7631Z" fill="black" stroke="black"/>
</g>
</g>
</g>
<defs>
<clipPath id="clip0_2198_945">
<rect width="48" height="48" fill="white"/>
</clipPath>
</defs>
</svg>
