<svg width="114" height="114" viewBox="0 0 114 114" fill="none" xmlns="http://www.w3.org/2000/svg">
<g clip-path="url(#clip0_2198_841)">
<mask id="mask0_2198_841" style="mask-type:luminance" maskUnits="userSpaceOnUse" x="0" y="0" width="114" height="114">
<path d="M114 57C114 25.5198 88.4802 0 57 0C25.5198 0 0 25.5198 0 57C0 88.4802 25.5198 114 57 114C88.4802 114 114 88.4802 114 57Z" fill="white"/>
</mask>
<g mask="url(#mask0_2198_841)">
<path d="M114 57C114 25.5198 88.4802 0 57 0C25.5198 0 0 25.5198 0 57C0 88.4802 25.5198 114 57 114C88.4802 114 114 88.4802 114 57Z" fill="#FCF0DD"/>
<path d="M155.696 29.3636H42.8359C32.3425 29.3636 23.8359 37.8702 23.8359 48.3636V161.224C23.8359 171.717 32.3425 180.224 42.8359 180.224H155.696C166.189 180.224 174.696 171.717 174.696 161.224V48.3636C174.696 37.8702 166.189 29.3636 155.696 29.3636Z" fill="#AAC8E7"/>
<path d="M155.351 55.7357H42.4912C31.9978 55.7357 23.4912 64.2423 23.4912 74.7357V187.596C23.4912 198.089 31.9978 206.596 42.4912 206.596H155.351C165.845 206.596 174.351 198.089 174.351 187.596V74.7357C174.351 64.2423 165.845 55.7357 155.351 55.7357Z" fill="#EB5B58"/>
<path d="M65.2909 73.0624L64.9186 73.4288L46.1824 91.87L45.8101 92.2364L35.2363 81.8296L37.8676 79.2399L45.8096 87.0566L62.2874 70.8392L62.6597 70.4728L65.2909 73.0624Z" fill="black" stroke="black"/>
</g>
</g>
<defs>
<clipPath id="clip0_2198_841">
<rect width="114" height="114" fill="white"/>
</clipPath>
</defs>
</svg>
