<svg width="114" height="114" viewBox="0 0 114 114" fill="none" xmlns="http://www.w3.org/2000/svg">
<mask id="mask0_2213_977" style="mask-type:luminance" maskUnits="userSpaceOnUse" x="0" y="0" width="114" height="114">
<path d="M114 57C114 25.5198 88.4802 0 57 0C25.5198 0 0 25.5198 0 57C0 88.4802 25.5198 114 57 114C88.4802 114 114 88.4802 114 57Z" fill="white"/>
</mask>
<g mask="url(#mask0_2213_977)">
<path d="M114 57C114 25.5198 88.4802 0 57 0C25.5198 0 0 25.5198 0 57C0 88.4802 25.5198 114 57 114C88.4802 114 114 88.4802 114 57Z" fill="#FCF0DD"/>
<path d="M155.696 29.3638H42.8359C32.3425 29.3638 23.8359 37.8704 23.8359 48.3638V161.224C23.8359 171.717 32.3425 180.224 42.8359 180.224H155.696C166.189 180.224 174.696 171.717 174.696 161.224V48.3638C174.696 37.8704 166.189 29.3638 155.696 29.3638Z" fill="#AAC8E7"/>
<path d="M155.352 55.7356H42.4922C31.9988 55.7356 23.4922 64.2422 23.4922 74.7356V187.596C23.4922 198.089 31.9988 206.596 42.4922 206.596H155.352C165.846 206.596 174.352 198.089 174.352 187.596V74.7356C174.352 64.2422 165.846 55.7356 155.352 55.7356Z" fill="#EB5B58"/>
<path d="M65.2909 73.0623L64.9186 73.4287L46.1824 91.8699L45.8101 92.2363L35.2363 81.8294L37.8676 79.2398L45.8096 87.0565L62.2874 70.8391L62.6597 70.4727L65.2909 73.0623Z" fill="black" stroke="black"/>
</g>
<path d="M57 0.5C88.2041 0.5 113.5 25.7959 113.5 57C113.5 88.2041 88.2041 113.5 57 113.5C25.7959 113.5 0.5 88.2041 0.5 57C0.5 25.7959 25.7959 0.5 57 0.5Z" stroke="black"/>
</svg>
